<?xml version="1.0"?>
<svg xmlns="http://www.w3.org/2000/svg" xmlns:xlink="http://www.w3.org/1999/xlink" xmlns:svgjs="http://svgjs.com/svgjs" version="1.1" width="512" height="512" x="0" y="0" viewBox="0 0 486.999 486.999" style="enable-background:new 0 0 512 512" xml:space="preserve" class=""><g transform="matrix(5.0210518765041494e-17,-0.82,0.82,5.0210518765041457e-17,38.82967254638649,458.1691700744632)">
<path xmlns="http://www.w3.org/2000/svg" d="M245.998,369.041c-36.206-9.382-82.293-37.023-122.338-85.506c65.484,49.425,102.909,74.005,186.401,79.731  c-39.577-8.454-89.954-30.714-113.323-87.508c-20.397-49.61-29.629-90.472-39.31-121.77c-3.055,14.121-11.266,27.767-28.827,38.108  c0,0,7.846-6.81,13.737-22.284c8.196-21.525,4.357-45.778-10.064-63.722c-14.44-17.952-37.308-26.933-60.093-23.527  c-0.015,0.008-0.05,0.008-0.084,0.017C-5.92,94.313-41.073,240.336,73.302,349.835c70.155,64.992,159.009,61.136,220.168,46.121  c72.377,8.104,144.22-17.501,193.529-84.838C469.906,325.641,385.343,405.146,245.998,369.041z" fill="#7c3838" data-original="#000000" style="" class=""/>
<g xmlns="http://www.w3.org/2000/svg">
</g>
<g xmlns="http://www.w3.org/2000/svg">
</g>
<g xmlns="http://www.w3.org/2000/svg">
</g>
<g xmlns="http://www.w3.org/2000/svg">
</g>
<g xmlns="http://www.w3.org/2000/svg">
</g>
<g xmlns="http://www.w3.org/2000/svg">
</g>
<g xmlns="http://www.w3.org/2000/svg">
</g>
<g xmlns="http://www.w3.org/2000/svg">
</g>
<g xmlns="http://www.w3.org/2000/svg">
</g>
<g xmlns="http://www.w3.org/2000/svg">
</g>
<g xmlns="http://www.w3.org/2000/svg">
</g>
<g xmlns="http://www.w3.org/2000/svg">
</g>
<g xmlns="http://www.w3.org/2000/svg">
</g>
<g xmlns="http://www.w3.org/2000/svg">
</g>
<g xmlns="http://www.w3.org/2000/svg">
</g>
</g></svg>
